<?xml version="1.0" encoding="utf-8" ?>
<svg baseProfile="full" height="526" style="display: inline-block; vertical-align: top;" version="1.1" width="560" xmlns="http://www.w3.org/2000/svg" xmlns:ev="http://www.w3.org/2001/xml-events" xmlns:xlink="http://www.w3.org/1999/xlink"><defs /><g><rect fill="cyan" height="20" width="560" x="0" y="0" /><text fill="black" font-family="Arial" font-size="14px" x="5" y="14">GEK Strom (GebäudeEnergieKenzahl Strom basierend auf Endenergie)</text><text fill="black" font-family="Arial" font-size="10px" x="5" y="40">Gebäude:</text><text fill="black" font-family="Arial" font-size="10px" font-weight="bold" x="120" y="40">Zweifamilienhaus</text><text fill="black" font-family="Arial" font-size="10px" x="5" y="55">Baujahr:</text><text fill="black" font-family="Arial" font-size="10px" x="120" y="55">2000</text><text fill="black" font-family="Arial" font-size="10px" x="5" y="70">Adresse:</text><text fill="black" font-family="Arial" font-size="10px" x="120" y="70">An der Dörrwies 20</text><text fill="black" font-family="Arial" font-size="10px" x="120" y="80">55218 Ingelheim</text><text fill="black" font-family="Arial" font-size="10px" x="5" y="95">Eigentümer:</text><text fill="black" font-family="Arial" font-size="10px" x="120" y="95">Martina Löpfe</text><text fill="black" font-family="Arial" font-size="10px" x="5" y="110">Energiebezugsfläche:</text><text fill="black" font-family="Arial" font-size="10px" x="120" y="110">200 m²</text><text fill="black" font-family="Arial" font-size="10px" x="270" y="40">Heizwärme erzeugt mit: Öl</text><text fill="black" font-family="Arial" font-size="10px" x="270" y="50">Warmwasser erzeugt mit: Öl</text><line stroke="black" stroke-width="1" x1="0" x2="560" y1="120" y2="120" /></g><g transform="translate(0, 120)"><text fill="black" font-family="Arial" font-size="7px" x="5" y="50">Öläquivalent</text><line stroke="black" stroke-width="0.5" x1="0" x2="560" y1="55" y2="55" /><line stroke="black" stroke-width="0.2" x1="60" x2="60" y1="0" y2="270" /><line stroke="black" stroke-width="0.2" x1="140" x2="140" y1="0" y2="270" /><text fill="black" font-family="Arial" font-size="7px" x="5" y="70">&lt; 0.5 Liter/m²</text><text fill="black" font-family="Arial" font-size="7px" x="5" y="100">&lt; 1.0 Liter/m²</text><text fill="black" font-family="Arial" font-size="7px" x="5" y="130">&lt; 1.5 Liter/m²</text><text fill="black" font-family="Arial" font-size="7px" x="5" y="160">&lt; 2.0 Liter/m²</text><text fill="black" font-family="Arial" font-size="7px" x="5" y="190">&lt; 2.5 Liter/m²</text><text fill="black" font-family="Arial" font-size="7px" x="5" y="220">&lt; 3.0 Liter/m²</text><text fill="black" font-family="Arial" font-size="7px" x="5" y="250">&gt; 3.5 Liter/m²</text><text fill="black" font-family="Arial" font-size="14px" x="65" y="20">Bewertung</text><polygon fill="#339966" points="60,60 80,60 90,70 80,80 60,80" stroke="black" /><text fill="black" font-family="Arial" font-size="15px" x="73" y="75">A</text><line stroke="grey" stroke-width="0.1" x1="90" x2="560" y1="70" y2="70" /><polygon fill="#1FB714" points="60,90 85,90 95,100 85,110 60,110" stroke="black" /><text fill="black" font-family="Arial" font-size="15px" x="78" y="105">B</text><line stroke="grey" stroke-width="0.1" x1="95" x2="560" y1="100" y2="100" /><polygon fill="#CCFFCC" points="60,120 90,120 100,130 90,140 60,140" stroke="black" /><text fill="black" font-family="Arial" font-size="15px" x="83" y="135">C</text><line stroke="grey" stroke-width="0.1" x1="100" x2="560" y1="130" y2="130" /><polygon fill="#FFFF99" points="60,150 95,150 105,160 95,170 60,170" stroke="black" /><text fill="black" font-family="Arial" font-size="15px" x="88" y="165">D</text><line stroke="grey" stroke-width="0.1" x1="105" x2="560" y1="160" y2="160" /><polygon fill="#FCF305" points="60,180 100,180 110,190 100,200 60,200" stroke="black" /><text fill="black" font-family="Arial" font-size="15px" x="93" y="195">E</text><line stroke="grey" stroke-width="0.1" x1="110" x2="560" y1="190" y2="190" /><polygon fill="#FF9900" points="60,210 105,210 115,220 105,230 60,230" stroke="black" /><text fill="black" font-family="Arial" font-size="15px" x="98" y="225">F</text><line stroke="grey" stroke-width="0.1" x1="115" x2="560" y1="220" y2="220" /><polygon fill="#DD0806" points="60,240 110,240 120,250 110,260 60,260" stroke="black" /><text fill="black" font-family="Arial" font-size="15px" x="103" y="255">G</text><line stroke="grey" stroke-width="0.1" x1="120" x2="560" y1="250" y2="250" /><text fill="black" font-family="Arial" font-size="14px" x="150" y="20">Entwicklung</text><text fill="black" font-family="Arial" font-size="7px" text-anchor="middle" x="170" y="40">2017</text><line stroke="black" stroke-width="0.2" x1="200" x2="200" y1="30" y2="270" /><polygon fill="#FFFF99" points="165,132.0 200,132.0 200,152.0 165,152.0 155,142.0" stroke="black" /><text fill="black" font-family="Arial" font-size="15px" text-anchor="end" x="197" y="147.0">1.70</text><text fill="black" font-family="Arial" font-size="7px" text-anchor="middle" x="230" y="40">2018</text><line stroke="black" stroke-width="0.2" x1="260" x2="260" y1="30" y2="270" /><polygon fill="#FFFF99" points="225,132.0 260,132.0 260,152.0 225,152.0 215,142.0" stroke="black" /><text fill="black" font-family="Arial" font-size="15px" text-anchor="end" x="257" y="147.0">1.70</text><text fill="black" font-family="Arial" font-size="7px" text-anchor="middle" x="290" y="40">2019</text><line stroke="black" stroke-width="0.2" x1="320" x2="320" y1="30" y2="270" /><polygon fill="#FCF305" points="285,156.0 320,156.0 320,176.0 285,176.0 275,166.0" stroke="black" /><text fill="black" font-family="Arial" font-size="15px" text-anchor="end" x="317" y="171.0">2.10</text><text fill="black" font-family="Arial" font-size="7px" text-anchor="middle" x="350" y="40">2020</text><line stroke="black" stroke-width="0.2" x1="380" x2="380" y1="30" y2="270" /><polygon fill="#FCF305" points="345,162.0 380,162.0 380,182.0 345,182.0 335,172.0" stroke="black" /><text fill="black" font-family="Arial" font-size="15px" text-anchor="end" x="377" y="177.0">2.20</text><text fill="black" font-family="Arial" font-size="7px" text-anchor="middle" x="410" y="40">2021</text><line stroke="black" stroke-width="0.2" x1="440" x2="440" y1="30" y2="270" /><polygon fill="#FCF305" points="405,168.0 440,168.0 440,188.0 405,188.0 395,178.0" stroke="black" /><text fill="black" font-family="Arial" font-size="15px" text-anchor="end" x="437" y="183.0">2.30</text><text fill="black" font-family="Arial" font-size="7px" text-anchor="middle" x="470" y="40">2022</text><line stroke="black" stroke-width="0.2" x1="500" x2="500" y1="30" y2="270" /><polygon fill="#FCF305" points="465,180.0 500,180.0 500,200.0 465,200.0 455,190.0" stroke="black" /><text fill="black" font-family="Arial" font-size="15px" text-anchor="end" x="497" y="195.0">2.50</text><text fill="black" font-family="Arial" font-size="7px" text-anchor="middle" x="530" y="40">Ziel</text><line stroke="black" stroke-width="0.2" x1="560" x2="560" y1="30" y2="270" /><polygon fill="#339966" points="525,60.0 560,60.0 560,80.0 525,80.0 515,70.0" stroke="black" /><text fill="black" font-family="Arial" font-size="15px" text-anchor="end" x="557" y="75.0">0.50</text></g><g transform="translate(0, 390)"><line stroke="black" stroke-width="0.5" x1="0" x2="560" y1="0" y2="0" /><text fill="black" font-family="Arial" font-size="11px" font-weight="bold" x="5" y="16">Strombedarf pro Jahr</text><text fill="black" font-family="Arial" font-size="8px" x="140" y="16">in Liter Öläquivalent (OE)</text><line stroke="black" stroke-width="0.2" x1="0" x2="560" y1="44" y2="44" /><text fill="black" font-family="Arial" font-size="10px" x="5" y="56">Strom allgemein:</text><line stroke="black" stroke-width="0.2" x1="0" x2="560" y1="60" y2="60" /><rect fill="#4b8ecc" height="15" width="560" x="0" y="62" /><text fill="black" font-family="Arial" font-size="10px" x="5" y="73">GEK-Strom [OE/m²]:</text><line stroke="black" stroke-width="0.8" x1="0" x2="560" y1="79" y2="79" /><text fill="black" font-family="Arial" font-size="10px" x="5" y="90">Kosten Strom allgemein [€]</text><line stroke="black" stroke-width="0.2" x1="0" x2="560" y1="96" y2="96" /><rect fill="#4b8ecc" height="15" width="560" x="0" y="98" /><text fill="black" font-family="Arial" font-size="10px" x="5" y="109">GEK Strom Kosten [€/m²]:</text><text fill="black" font-family="Arial" font-size="6px" x="5" y="123">Definition Endenergie:</text><text fill="black" font-family="Arial" font-size="6px" x="80" y="123">extern eingekaufte Energie</text><text fill="black" font-family="Arial" font-size="6px" x="5" y="129">Umrechnungsfaktor:</text><text fill="black" font-family="Arial" font-size="6px" x="80" y="129">1 Liter Öläquivalent = 10 kWh</text><line stroke="black" stroke-width="0.2" x1="140" x2="140" y1="30" y2="113" /><line stroke="black" stroke-width="0.2" x1="200" x2="200" y1="30" y2="113" /><text fill="black" font-family="Arial" font-size="7px" text-anchor="middle" x="170" y="40">2017</text><text fill="black" font-family="Arial" font-size="10px" text-anchor="end" x="195" y="56">346</text><text fill="black" font-family="Arial" font-size="10px" text-anchor="end" x="195" y="73">1,70</text><text fill="black" font-family="Arial" font-size="10px" text-anchor="end" x="195" y="90">968,00</text><text fill="black" font-family="Arial" font-size="10px" text-anchor="end" x="195" y="109">4,84</text><line stroke="black" stroke-width="0.2" x1="260" x2="260" y1="30" y2="113" /><text fill="black" font-family="Arial" font-size="7px" text-anchor="middle" x="230" y="40">2018</text><text fill="black" font-family="Arial" font-size="10px" text-anchor="end" x="255" y="56">346</text><text fill="black" font-family="Arial" font-size="10px" text-anchor="end" x="255" y="73">1,70</text><text fill="black" font-family="Arial" font-size="10px" text-anchor="end" x="255" y="90">968,00</text><text fill="black" font-family="Arial" font-size="10px" text-anchor="end" x="255" y="109">4,84</text><line stroke="black" stroke-width="0.2" x1="320" x2="320" y1="30" y2="113" /><text fill="black" font-family="Arial" font-size="7px" text-anchor="middle" x="290" y="40">2019</text><text fill="black" font-family="Arial" font-size="10px" text-anchor="end" x="315" y="56">418</text><text fill="black" font-family="Arial" font-size="10px" text-anchor="end" x="315" y="73">2,10</text><text fill="black" font-family="Arial" font-size="10px" text-anchor="end" x="315" y="90">1169,47</text><text fill="black" font-family="Arial" font-size="10px" text-anchor="end" x="315" y="109">5,85</text><line stroke="black" stroke-width="0.2" x1="380" x2="380" y1="30" y2="113" /><text fill="black" font-family="Arial" font-size="7px" text-anchor="middle" x="350" y="40">2020</text><text fill="black" font-family="Arial" font-size="10px" text-anchor="end" x="375" y="56">442</text><text fill="black" font-family="Arial" font-size="10px" text-anchor="end" x="375" y="73">2,20</text><text fill="black" font-family="Arial" font-size="10px" text-anchor="end" x="375" y="90">1154,65</text><text fill="black" font-family="Arial" font-size="10px" text-anchor="end" x="375" y="109">5,77</text><line stroke="black" stroke-width="0.2" x1="440" x2="440" y1="30" y2="113" /><text fill="black" font-family="Arial" font-size="7px" text-anchor="middle" x="410" y="40">2021</text><text fill="black" font-family="Arial" font-size="10px" text-anchor="end" x="435" y="56">392</text><text fill="black" font-family="Arial" font-size="10px" text-anchor="end" x="435" y="73">2,30</text><text fill="black" font-family="Arial" font-size="10px" text-anchor="end" x="435" y="90">1000,00</text><text fill="black" font-family="Arial" font-size="10px" text-anchor="end" x="435" y="109">4,93</text><line stroke="black" stroke-width="0.2" x1="500" x2="500" y1="30" y2="113" /><text fill="black" font-family="Arial" font-size="7px" text-anchor="middle" x="470" y="40">2022</text><text fill="black" font-family="Arial" font-size="10px" text-anchor="end" x="495" y="56">380</text><text fill="black" font-family="Arial" font-size="10px" text-anchor="end" x="495" y="73">2,50</text><text fill="black" font-family="Arial" font-size="10px" text-anchor="end" x="495" y="90">970,00</text><text fill="black" font-family="Arial" font-size="10px" text-anchor="end" x="495" y="109">4,99</text><line stroke="black" stroke-width="0.2" x1="560" x2="560" y1="30" y2="113" /><text fill="black" font-family="Arial" font-size="7px" text-anchor="middle" x="530" y="40">Ziel</text><text fill="black" font-family="Arial" font-size="10px" text-anchor="end" x="555" y="56">100</text><text fill="black" font-family="Arial" font-size="10px" text-anchor="end" x="555" y="73">0,50</text><text fill="black" font-family="Arial" font-size="10px" text-anchor="end" x="555" y="90">280,00</text><text fill="black" font-family="Arial" font-size="10px" text-anchor="end" x="555" y="109">1,40</text></g><rect fill-opacity="0.0" height="526" stroke="black" stroke-width="1" width="560" x="0" y="0" /></svg>